<?xml version="1.0" encoding="UTF-8" standalone="no"?>
<svg
   version="1.1"
   width="302.73"
   height="240.01"
   xml:space="preserve"
   id="svg128"
   sodipodi:docname="onlinelogomaker-033123-1650-6203.svg"
   inkscape:version="1.2.2 (732a01da63, 2022-12-09)"
   inkscape:export-filename="50dpi.png"
   inkscape:export-xdpi="50"
   inkscape:export-ydpi="50"
   xmlns:inkscape="http://www.inkscape.org/namespaces/inkscape"
   xmlns:sodipodi="http://sodipodi.sourceforge.net/DTD/sodipodi-0.dtd"
   xmlns="http://www.w3.org/2000/svg"
   xmlns:svg="http://www.w3.org/2000/svg"><sodipodi:namedview
   id="namedview130"
   pagecolor="#ffffff"
   bordercolor="#000000"
   borderopacity="0.25"
   inkscape:showpageshadow="2"
   inkscape:pageopacity="0.0"
   inkscape:pagecheckerboard="0"
   inkscape:deskcolor="#d1d1d1"
   showgrid="false"
   inkscape:zoom="2.3687091"
   inkscape:cx="65.647572"
   inkscape:cy="116.30808"
   inkscape:window-width="1920"
   inkscape:window-height="991"
   inkscape:window-x="-9"
   inkscape:window-y="-9"
   inkscape:window-maximized="1"
   inkscape:current-layer="svg128" />
<desc
   id="desc2">Created with Fabric.js 1.6.0-rc.1</desc>
<defs
   id="defs4" />
  <g
   transform="translate(293.38 102.1) scale(1.29 1.26)"
   id="g10">
   <text
   font-family="Avondale Inline"
   font-size="40"
   font-weight="bold"
   style="stroke: none; stroke-width: 1; stroke-dasharray: none; stroke-linecap: butt; stroke-linejoin: miter; stroke-miterlimit: 10; fill: #0e4275; fill-rule: nonzero; opacity: 1;"
   id="text8"><tspan
     x="0"
     y="8.98"
     fill="#0e4275"
     id="tspan6" /></text>
 </g>
<g
   style="stroke: none; stroke-width: 1; stroke-dasharray: none; stroke-linecap: butt; stroke-linejoin: miter; stroke-miterlimit: 10; fill: none; fill-rule: nonzero; opacity: 1;"
   transform="translate(10 10) scale(0.49 0.49)"
   id="g42">
  <path
   d="M 393.891 369.891 L 384 360 v -16 l -8 -16 l -8 -16 l 16 -16 l -8 -16 v -16 l -16 -8 h -16 l -16 8 h -16 l -16 -8 l -8 -24 v -24 l 8 -8 v -24 l 8 -8 h 16 l 16 -8 h 24 l 8 8 l 16 8 l 8 -8 l 16 -8 l 16 8 h 16 h 0.945 c -2.117 -8.203 -4.728 -16.188 -7.72 -24 H 424 l -8 -8 h -8 v -8 l -16 -16 l -8 8 l 16 16 l -16 8 l -8 -8 v -8 l -8 -16 l -8 8 l -16 8 l -8 8 h -16 l -8 -16 l 8 -16 h 16 l 8 8 V 96 l 8 -8 h 16 l 8 -8 l -16 -8 l -8 -8 V 40.219 C 319.828 17.773 281.516 3.578 240.063 0.625 C 194.398 3.844 154.031 21.484 120 48 l 8 8 l 16 -8 l 8 -8 h 16 l 8 8 l 8 16 h -16 l -24 8 l -8 -8 l -24 8 v 16 h 8 l 8 8 l 8 -16 h 16 h 16 l 16 -8 l 8 8 l 8 16 h 8 l -16 16 l -24 -8 v 16 h -24 l -16 16 l -8 32 l -16 16 l -16 -8 H 64 l -8 8 l 8 16 l 8 -8 h 8 v 8 l 8 8 v 8 h 16 l 8 -8 h 16 l 8 16 l 8 -8 h 16 l 16 8 l 8 16 h 8 l 8 8 l 16 8 l 8 16 l -8 24 l -16 8 v 16 l -16 8 v 24 l -16 8 l -8 24 l 8 16 l 8 8 h -16 l -8 -8 l -8 -24 l -8 -16 v -16 l -8 -16 l -8 -16 v -16 h -16 l -16 -16 l -8 -16 l 8 -24 l 8 -8 v -8 H 80 l -7.875 -8 H 56 l -8 -8 l -16 -8 v 24 c 0 118.327 91.766 215.155 208 223.366 C 301.469 443.016 356.07 413.898 393.891 369.891 z M 320 72 l 16 8 l -8.773 16.022 L 320 96 v -8 l -8 -8 L 320 72 z M 296 80 h 8 l 8 8 l -8 8 l -8 -8 V 80 z M 176 144 l -8 -8 v -8 h 8 l 8 8 L 176 144 z M 200 128 l -8 8 l -8 -8 v -8 h 16 V 128 z"
   style="stroke: none; stroke-width: 1; stroke-dasharray: none; stroke-linecap: butt; stroke-linejoin: miter; stroke-miterlimit: 10; fill: #27A2DF; fill-rule: nonzero; opacity: 1;"
   transform=" matrix(1 0 0 1 0 0) "
   stroke-linecap="round"
   id="path12" />
  <path
   d="M 360 72 l 16 8 l -8 8 h -16 l -8 8 v 16 l -8 -8 h -16 l -8 16 l 8 16 h 16 l 8 -8 l 16 -8 l 8 -8 l 8 16 v 8 l 8 8 l 16 -8 l -16 -16 l 8 -8 l 16 16 v 8 h 8 l 8 8 h 9.227 C 417.079 101.766 388.516 65.703 352 40.219 V 64 L 360 72 z"
   style="stroke: none; stroke-width: 1; stroke-dasharray: none; stroke-linecap: butt; stroke-linejoin: miter; stroke-miterlimit: 10; fill: #1762a3; fill-rule: nonzero; opacity: 1;"
   transform=" matrix(1 0 0 1 0 0) "
   stroke-linecap="round"
   id="path14" />
  <polygon
   points="320,96 327.23,96.02 336,80 320,72 312,80 320,88 "
   style="stroke: none; stroke-width: 1; stroke-dasharray: none; stroke-linecap: butt; stroke-linejoin: miter; stroke-miterlimit: 10; fill: #1762a3; fill-rule: nonzero; opacity: 1;"
   transform="  matrix(1 0 0 1 0 0) "
   id="polygon16" />
  <polygon
   points="312,88 304,80 296,80 296,88 304,96 "
   style="stroke: none; stroke-width: 1; stroke-dasharray: none; stroke-linecap: butt; stroke-linejoin: miter; stroke-miterlimit: 10; fill: #1762a3; fill-rule: nonzero; opacity: 1;"
   transform="  matrix(1 0 0 1 0 0) "
   id="polygon18" />
  <path
   d="M 440.945 168 H 440 h -16 l -16 -8 l -16 8 l -8 8 l -16 -8 l -8 -8 h -24 l -16 8 h -16 l -8 8 v 24 l -8 8 v 24 l 8 24 l 16 8 h 16 l 16 -8 h 16 l 16 8 v 16 l 8 16 l -16 16 l 8 16 l 8 16 v 16 l 9.891 9.891 C 427.586 330.695 448 279.75 448 224 C 448 204.664 445.547 185.898 440.945 168 z"
   style="stroke: none; stroke-width: 1; stroke-dasharray: none; stroke-linecap: butt; stroke-linejoin: miter; stroke-miterlimit: 10; fill: #1762a3; fill-rule: nonzero; opacity: 1;"
   transform=" matrix(1 0 0 1 0 0) "
   stroke-linecap="round"
   id="path20" />
  <polygon
   points="184,128 192,136 200,128 200,120 184,120 "
   style="stroke: none; stroke-width: 1; stroke-dasharray: none; stroke-linecap: butt; stroke-linejoin: miter; stroke-miterlimit: 10; fill: #1762a3; fill-rule: nonzero; opacity: 1;"
   transform="  matrix(1 0 0 1 0 0) "
   id="polygon22" />
  <polygon
   points="168,128 168,136 176,144 184,136 176,128 "
   style="stroke: none; stroke-width: 1; stroke-dasharray: none; stroke-linecap: butt; stroke-linejoin: miter; stroke-miterlimit: 10; fill: #1762a3; fill-rule: nonzero; opacity: 1;"
   transform="  matrix(1 0 0 1 0 0) "
   id="polygon24" />
  <path
   d="M 32 224 v -24 h -8 l -8 -8 H 8 l -5.516 -1.375 C 0.859 201.516 0 212.656 0 224 c 0 123.711 100.289 224 224 224 c 5.383 0 10.703 -0.259 16 -0.634 C 123.766 439.156 32 342.327 32 224 z"
   style="stroke: none; stroke-width: 1; stroke-dasharray: none; stroke-linecap: butt; stroke-linejoin: miter; stroke-miterlimit: 10; fill: #218BC0; fill-rule: nonzero; opacity: 1;"
   transform=" matrix(1 0 0 1 0 0) "
   stroke-linecap="round"
   id="path26" />
  <path
   d="M 120 48 c 34.031 -26.517 74.398 -44.156 120.063 -47.375 C 234.758 0.25 229.406 0 224 0 c -47.477 0 -91.461 14.813 -127.688 40 H 104 L 120 48 z"
   style="stroke: none; stroke-width: 1; stroke-dasharray: none; stroke-linecap: butt; stroke-linejoin: miter; stroke-miterlimit: 10; fill: #218BC0; fill-rule: nonzero; opacity: 1;"
   transform=" matrix(1 0 0 1 0 0) "
   stroke-linecap="round"
   id="path28" />
  <path
   d="M 16 192 l 8 8 h 8 c 5.883 -63.234 40.578 -115.047 88 -152 l -16 -8 h -7.688 C 46.781 74.438 11.797 128.32 2.484 190.625 L 8 192 H 16 z"
   style="stroke: none; stroke-width: 1; stroke-dasharray: none; stroke-linecap: butt; stroke-linejoin: miter; stroke-miterlimit: 10; fill: #1762a3; fill-rule: nonzero; opacity: 1;"
   transform=" matrix(1 0 0 1 0 0) "
   stroke-linecap="round"
   id="path30" />
  <polygon
   points="320,96 327.23,96.02 336,80 320,72 312,80 320,88 "
   style="stroke: none; stroke-width: 1; stroke-dasharray: none; stroke-linecap: butt; stroke-linejoin: miter; stroke-miterlimit: 10; fill: #1762a3; fill-rule: nonzero; opacity: 1;"
   transform="  matrix(1 0 0 1 0 0) "
   id="polygon32" />
  <polygon
   points="312,88 304,80 296,80 296,88 304,96 "
   style="stroke: none; stroke-width: 1; stroke-dasharray: none; stroke-linecap: butt; stroke-linejoin: miter; stroke-miterlimit: 10; fill: #1762a3; fill-rule: nonzero; opacity: 1;"
   transform="  matrix(1 0 0 1 0 0) "
   id="polygon34" />
  <polygon
   points="168,128 168,136 176,144 184,136 176,128 "
   style="stroke: none; stroke-width: 1; stroke-dasharray: none; stroke-linecap: butt; stroke-linejoin: miter; stroke-miterlimit: 10; fill: #1762a3; fill-rule: nonzero; opacity: 1;"
   transform="  matrix(1 0 0 1 0 0) "
   id="polygon36" />
  <polygon
   points="184,128 192,136 200,128 200,120 184,120 "
   style="stroke: none; stroke-width: 1; stroke-dasharray: none; stroke-linecap: butt; stroke-linejoin: miter; stroke-miterlimit: 10; fill: #1762a3; fill-rule: nonzero; opacity: 1;"
   transform="  matrix(1 0 0 1 0 0) "
   id="polygon38" />
  <path
   d="M 32 200 l 16 8 l 8 8 h 16.125 L 80 224 h 16 v 8 l -8 8 l -8 24 l 8 16 l 16 16 h 16 v 16 l 8 16 l 8 16 v 16 l 8 16 l 8 24 l 8 8 h 16 l -8 -8 l -8 -16 l 8 -24 l 16 -8 v -24 l 16 -8 v -16 l 16 -8 l 8 -24 l -8 -16 l -16 -8 l -8 -8 h -8 l -8 -16 l -16 -8 h -16 l -8 8 l -8 -16 h -16 l -8 8 H 88 v -8 l -8 -8 v -8 h -8 l -8 8 l -8 -16 l 8 -8 h 24 l 16 8 l 16 -16 l 8 -32 l 16 -16 h 24 v -16 l 24 8 l 16 -16 h -8 l -8 -16 l -8 -8 l -16 8 h -16 h -16 l -8 16 l -8 -8 h -8 V 72 l 24 -8 l 8 8 l 24 -8 h 16 l -8 -16 l -8 -8 h -16 l -8 8 l -16 8 l -8 -8 C 72.578 84.953 37.883 136.766 32 200 z"
   style="stroke: none; stroke-width: 1; stroke-dasharray: none; stroke-linecap: butt; stroke-linejoin: miter; stroke-miterlimit: 10; fill: #1762a3; fill-rule: nonzero; opacity: 1;"
   transform=" matrix(1 0 0 1 0 0) "
   stroke-linecap="round"
   id="path40" />
</g>
  <g
   transform="translate(159.08 102.2) scale(1.29 1.26)"
   id="g56">
   <text
   font-family="'Avondale Inline'"
   font-size="40px"
   font-weight="bold"
   style="opacity:1;fill:#020d59;fill-rule:nonzero;stroke:none;stroke-width:1;stroke-linecap:butt;stroke-linejoin:miter;stroke-miterlimit:10;stroke-dasharray:none"
   id="text54"><tspan
     x="-96.669998"
     y="8.9799995"
     style="opacity:1;fill:#020d59;stroke:none;stroke-width:0;stroke-linecap:butt;stroke-linejoin:miter;stroke-miterlimit:4;stroke-dasharray:none"
     id="tspan44">திறன்</tspan></text>
 </g>
  <g
   transform="translate(164.08 98.2) scale(1.29 1.26)"
   id="g70">
   <text
   font-family="'Avondale Inline'"
   font-size="40px"
   font-weight="bold"
   style="opacity:1;fill:#fafa52;fill-rule:nonzero;stroke:none;stroke-width:1;stroke-linecap:butt;stroke-linejoin:miter;stroke-miterlimit:10;stroke-dasharray:none"
   id="text68"><tspan
     x="-96.669998"
     y="8.9799995"
     style="opacity:1;fill:#fafa52;stroke:none;stroke-width:0;stroke-linecap:butt;stroke-linejoin:miter;stroke-miterlimit:4;stroke-dasharray:none"
     id="tspan58">திறன்</tspan></text>
 </g>
<g
   style="opacity:1;fill:none;fill-rule:nonzero;stroke:none;stroke-width:1;stroke-linecap:butt;stroke-linejoin:miter;stroke-miterlimit:10;stroke-dasharray:none"
   transform="matrix(0.17,0,0,0.17,76.81,107.37)"
   id="g126">
  <rect
   x="8"
   y="184"
   rx="0"
   ry="0"
   width="496"
   height="240"
   style="opacity:1;fill:#ffffff;fill-rule:nonzero;stroke:none;stroke-width:1;stroke-linecap:butt;stroke-linejoin:miter;stroke-miterlimit:10;stroke-dasharray:none"
   id="rect72" />
  <path
   d="M 512,432 H 0 V 176 H 512 Z M 16,416 H 496 V 192 H 16 Z"
   style="opacity:1;fill:#001c3d;fill-rule:nonzero;stroke:none;stroke-width:1;stroke-linecap:butt;stroke-linejoin:miter;stroke-miterlimit:10;stroke-dasharray:none"
   stroke-linecap="round"
   id="path74" />
  <rect
   x="176"
   y="352"
   rx="0"
   ry="0"
   width="160"
   height="32"
   style="opacity:1;fill:#ffffff;fill-rule:nonzero;stroke:none;stroke-width:1;stroke-linecap:butt;stroke-linejoin:miter;stroke-miterlimit:10;stroke-dasharray:none"
   id="rect76" />
  <path
   d="M 344,392 H 168 V 344 H 344 Z M 184,376 H 328 V 360 H 184 Z"
   style="opacity:1;fill:#001c3d;fill-rule:nonzero;stroke:none;stroke-width:1;stroke-linecap:butt;stroke-linejoin:miter;stroke-miterlimit:10;stroke-dasharray:none"
   stroke-linecap="round"
   id="path78" />
  <path
   d="M 88,264 H 40 V 216 H 88 Z M 56,248 H 72 V 232 H 56 Z"
   style="opacity:1;fill:#001c3d;fill-rule:nonzero;stroke:none;stroke-width:1;stroke-linecap:butt;stroke-linejoin:miter;stroke-miterlimit:10;stroke-dasharray:none"
   stroke-linecap="round"
   id="path80" />
  <path
   d="m 152,264 h -48 v -48 h 48 z m -32,-16 h 16 v -16 h -16 z"
   style="opacity:1;fill:#001c3d;fill-rule:nonzero;stroke:none;stroke-width:1;stroke-linecap:butt;stroke-linejoin:miter;stroke-miterlimit:10;stroke-dasharray:none"
   stroke-linecap="round"
   id="path82" />
  <path
   d="m 216,264 h -48 v -48 h 48 z m -32,-16 h 16 v -16 h -16 z"
   style="opacity:1;fill:#001c3d;fill-rule:nonzero;stroke:none;stroke-width:1;stroke-linecap:butt;stroke-linejoin:miter;stroke-miterlimit:10;stroke-dasharray:none"
   stroke-linecap="round"
   id="path84" />
  <path
   d="m 280,264 h -48 v -48 h 48 z m -32,-16 h 16 v -16 h -16 z"
   style="opacity:1;fill:#001c3d;fill-rule:nonzero;stroke:none;stroke-width:1;stroke-linecap:butt;stroke-linejoin:miter;stroke-miterlimit:10;stroke-dasharray:none"
   stroke-linecap="round"
   id="path86" />
  <path
   d="m 344,264 h -48 v -48 h 48 z m -32,-16 h 16 v -16 h -16 z"
   style="opacity:1;fill:#001c3d;fill-rule:nonzero;stroke:none;stroke-width:1;stroke-linecap:butt;stroke-linejoin:miter;stroke-miterlimit:10;stroke-dasharray:none"
   stroke-linecap="round"
   id="path88" />
  <path
   d="m 408,264 h -48 v -48 h 48 z m -32,-16 h 16 v -16 h -16 z"
   style="opacity:1;fill:#001c3d;fill-rule:nonzero;stroke:none;stroke-width:1;stroke-linecap:butt;stroke-linejoin:miter;stroke-miterlimit:10;stroke-dasharray:none"
   stroke-linecap="round"
   id="path90" />
  <path
   d="m 472,264 h -48 v -48 h 48 z m -32,-16 h 16 v -16 h -16 z"
   style="opacity:1;fill:#001c3d;fill-rule:nonzero;stroke:none;stroke-width:1;stroke-linecap:butt;stroke-linejoin:miter;stroke-miterlimit:10;stroke-dasharray:none"
   stroke-linecap="round"
   id="path92" />
  <path
   d="M 88,328 H 40 V 280 H 88 Z M 56,312 H 72 V 296 H 56 Z"
   style="opacity:1;fill:#001c3d;fill-rule:nonzero;stroke:none;stroke-width:1;stroke-linecap:butt;stroke-linejoin:miter;stroke-miterlimit:10;stroke-dasharray:none"
   stroke-linecap="round"
   id="path94" />
  <path
   d="m 152,328 h -48 v -48 h 48 z m -32,-16 h 16 v -16 h -16 z"
   style="opacity:1;fill:#001c3d;fill-rule:nonzero;stroke:none;stroke-width:1;stroke-linecap:butt;stroke-linejoin:miter;stroke-miterlimit:10;stroke-dasharray:none"
   stroke-linecap="round"
   id="path96" />
  <path
   d="m 216,328 h -48 v -48 h 48 z m -32,-16 h 16 v -16 h -16 z"
   style="opacity:1;fill:#001c3d;fill-rule:nonzero;stroke:none;stroke-width:1;stroke-linecap:butt;stroke-linejoin:miter;stroke-miterlimit:10;stroke-dasharray:none"
   stroke-linecap="round"
   id="path98" />
  <path
   d="m 280,328 h -48 v -48 h 48 z m -32,-16 h 16 v -16 h -16 z"
   style="opacity:1;fill:#001c3d;fill-rule:nonzero;stroke:none;stroke-width:1;stroke-linecap:butt;stroke-linejoin:miter;stroke-miterlimit:10;stroke-dasharray:none"
   stroke-linecap="round"
   id="path100" />
  <path
   d="m 344,328 h -48 v -48 h 48 z m -32,-16 h 16 v -16 h -16 z"
   style="opacity:1;fill:#001c3d;fill-rule:nonzero;stroke:none;stroke-width:1;stroke-linecap:butt;stroke-linejoin:miter;stroke-miterlimit:10;stroke-dasharray:none"
   stroke-linecap="round"
   id="path102" />
  <path
   d="m 408,328 h -48 v -48 h 48 z m -32,-16 h 16 v -16 h -16 z"
   style="opacity:1;fill:#001c3d;fill-rule:nonzero;stroke:none;stroke-width:1;stroke-linecap:butt;stroke-linejoin:miter;stroke-miterlimit:10;stroke-dasharray:none"
   stroke-linecap="round"
   id="path104" />
  <path
   d="m 472,328 h -48 v -48 h 48 z m -32,-16 h 16 v -16 h -16 z"
   style="opacity:1;fill:#001c3d;fill-rule:nonzero;stroke:none;stroke-width:1;stroke-linecap:butt;stroke-linejoin:miter;stroke-miterlimit:10;stroke-dasharray:none"
   stroke-linecap="round"
   id="path106" />
  <path
   d="M 88,392 H 40 V 344 H 88 Z M 56,376 H 72 V 360 H 56 Z"
   style="opacity:1;fill:#001c3d;fill-rule:nonzero;stroke:none;stroke-width:1;stroke-linecap:butt;stroke-linejoin:miter;stroke-miterlimit:10;stroke-dasharray:none"
   stroke-linecap="round"
   id="path108" />
  <path
   d="m 152,392 h -48 v -48 h 48 z m -32,-16 h 16 v -16 h -16 z"
   style="opacity:1;fill:#001c3d;fill-rule:nonzero;stroke:none;stroke-width:1;stroke-linecap:butt;stroke-linejoin:miter;stroke-miterlimit:10;stroke-dasharray:none"
   stroke-linecap="round"
   id="path110" />
  <path
   d="m 408,392 h -48 v -48 h 48 z m -32,-16 h 16 v -16 h -16 z"
   style="opacity:1;fill:#001c3d;fill-rule:nonzero;stroke:none;stroke-width:1;stroke-linecap:butt;stroke-linejoin:miter;stroke-miterlimit:10;stroke-dasharray:none"
   stroke-linecap="round"
   id="path112" />
  <path
   d="m 472,392 h -48 v -48 h 48 z m -32,-16 h 16 v -16 h -16 z"
   style="opacity:1;fill:#001c3d;fill-rule:nonzero;stroke:none;stroke-width:1;stroke-linecap:butt;stroke-linejoin:miter;stroke-miterlimit:10;stroke-dasharray:none"
   stroke-linecap="round"
   id="path114" />
  <path
   d="m 264,176 h -16 c 0,-17.6 14.4,-32 32,-32 v 16 c -8.8,0 -16,7.2 -16,16 z"
   style="opacity:1;fill:#001c3d;fill-rule:nonzero;stroke:none;stroke-width:1;stroke-linecap:butt;stroke-linejoin:miter;stroke-miterlimit:10;stroke-dasharray:none"
   stroke-linecap="round"
   id="path116" />
  <rect
   x="280"
   y="144"
   rx="0"
   ry="0"
   width="24"
   height="16"
   style="opacity:1;fill:#001c3d;fill-rule:nonzero;stroke:none;stroke-width:1;stroke-linecap:butt;stroke-linejoin:miter;stroke-miterlimit:10;stroke-dasharray:none"
   id="rect118" />
  <path
   d="m 304,160 v -16 c 8.8,0 16,-7.2 16,-16 0,-8.8 -7.2,-16 -16,-16 V 96 c 17.6,0 32,14.4 32,32 0,17.6 -14.4,32 -32,32 z"
   style="opacity:1;fill:#001c3d;fill-rule:nonzero;stroke:none;stroke-width:1;stroke-linecap:butt;stroke-linejoin:miter;stroke-miterlimit:10;stroke-dasharray:none"
   stroke-linecap="round"
   id="path120" />
  <rect
   x="208"
   y="96"
   rx="0"
   ry="0"
   width="96"
   height="16"
   style="opacity:1;fill:#001c3d;fill-rule:nonzero;stroke:none;stroke-width:1;stroke-linecap:butt;stroke-linejoin:miter;stroke-miterlimit:10;stroke-dasharray:none"
   id="rect122" />
  <path
   d="m 208,112 c -17.6,0 -32,-14.4 -32,-32 h 16 c 0,8.8 7.2,16 16,16 z"
   style="opacity:1;fill:#001c3d;fill-rule:nonzero;stroke:none;stroke-width:1;stroke-linecap:butt;stroke-linejoin:miter;stroke-miterlimit:10;stroke-dasharray:none"
   stroke-linecap="round"
   id="path124" />
</g>
</svg>
